{"title":"Lorde - Yellow Flicker Beat (from The Hunger Games) 2014","uid":11413699,"size":84162848,"categoryP":"video","categoryS":"music_videos","magnet":"?xt=urn:btih:fc6bb6623512407ba7021a9d6be0992ca85fb4df&amp;dn=Lorde+-+Yellow+Flicker+Beat+%28from+The+Hunger+Games%29+2014&amp;tr=udp%3A%2F%2Ftracker.openbittorrent.com%3A80&amp;tr=udp%3A%2F%2Fopen.demonii.com%3A1337&amp;tr=udp%3A%2F%2Ftracker.coppersurfer.tk%3A6969&amp;tr=udp%3A%2F%2Fexodus.desync.com%3A6969","seeders":20,"leechers":0,"uploader":"MeRaDil","files":-1,"time":1415554559,"description":"LORDE - YELLOW FLICKER BEAT\n\n\n\nfrom The Hunger Games:Mockingjay part 1\n &lt;a href=&quot;\nhttp://gifyu.com/images/Lorde.png&quot; rel=&quot;nofollow&quot; target=&quot;_NEW&quot;&gt;\nhttp://gifyu.com/images/Lorde.png&lt;/a&gt;\n\n\nMPEG4 PROMO MUSIC VID\nGeneral\nComplete name                            : Lorde - Yellow Flicker Beat (from The Hunger Games)\nFormat                                   : MPEG-4\nFormat profile                           : Base Media\nCodec ID                                 : isom\nFile size                                : 80.3 MiB\nDuration                                 : 4mn 3s\nOverall bit rate                         : 2 767 Kbps\nMusicVid name                            : Yellow Flicker Beat\nAlbum                                    : OST.The Hunger Games:Mockingjay-part 1\nPerformer                                : Lorde\nGenre                                    : Soundtrack/Pop\nContentType                              : Music Video\nRecorded date                            : 2014\nCopyright                                : Lorde &amp; The Hunger Games\nCover                                    : Yes\nComment                                  : from the movie The Hunger  Games:Mockingjay part 1\nRating                                   : ***\nMake                                     : MeRaDil\noday                                     : 06-11-2014  New Zealand/USA\nartist url                               : http://lorde.co.nz\nlabel                                    : Republic\nrelease                                  : New Zealand/USA . november 6 . 2014\nPart_ID                                  : Yellow Flicker Beat\n\nVideo\nID                                       : 1\nFormat                                   : AVC\nFormat/Info                              : Advanced Video Codec\nFormat profile                           : &lt;a class=&quot;__cf_email__&quot; href=&quot;/cdn-cgi/l/email-protection&quot; data-cfemail=&quot;2068494748606c140e10&quot;&gt;[email&amp;#160;protected]&lt;/a&gt;&lt;script cf-hash='f9e31' type=&quot;text/javascript&quot;&gt;\n/* &lt;![CDATA[ */!function(){try{var t=&quot;currentScript&quot;in document?document.currentScript:function(){for(var t=document.getElementsByTagName(&quot;script&quot;),e=t.length;e--;)if(t[e].getAttribute(&quot;cf-hash&quot;))return t[e]}();if(t&amp;&amp;t.previousSibling){var e,r,n,i,c=t.previousSibling,a=c.getAttribute(&quot;data-cfemail&quot;);if(a){for(e=&quot;&quot;,r=parseInt(a.substr(0,2),16),n=2;a.length-n;n+=2)i=parseInt(a.substr(n,2),16)^r,e+=String.fromCharCode(i);e=document.createTextNode(e),c.parentNode.replaceChild(e,c)}}}catch(u){}}();/* ]]&gt; */&lt;/script&gt;\nFormat settings, CABAC                   : Yes\nFormat settings, ReFrames                : 2 frames\nCodec ID                                 : avc1\nCodec ID/Info                            : Advanced Video Coding\nDuration                                 : 4mn 3s\nBit rate                                 : 2 503 Kbps\nWidth                                    : 1 920 pixels\nHeight                                   : 1 080 pixels\nDisplay aspect ratio                     : 16:9\nFrame rate mode                          : Variable\nFrame rate                               : 23.976 fps\nMinimum frame rate                       : 23.974 fps\nMaximum frame rate                       : 23.981 fps\nColor space                              : YUV\nChroma subsampling                       : 4:2:0\nBit depth                                : 8 bits\nScan type                                : Progressive\nBits/(Pixel*Frame)                       : 0.050\nStream size                              : 72.6 MiB (90%)\n\nAudio\nID                                       : 2\nFormat                                   : AAC\nFormat/Info                              : Advanced Audio Codec\nFormat profile                           : LC\nCodec ID                                 : 40\nDuration                                 : 4mn 3s\nBit rate mode                            : Constant\nBit rate                                 : 256 Kbps\nChannel(s)                               : 2 channels\nChannel positions                        : Front: L R\nSampling rate                            : 44.1 KHz\nCompression mode                         : Lossy\nStream size                              : 7.43 MiB (9%)\n\nLorde * The Hunger Games \n &lt;a href=&quot;\nhttps://thepiratebay.se/user/MeRaDil&quot; rel=&quot;nofollow&quot; target=&quot;_NEW&quot;&gt;\nhttps://thepiratebay.se/user/MeRaDil&lt;/a&gt;\n\n:)","torrent":{"xt":"urn:btih:fc6bb6623512407ba7021a9d6be0992ca85fb4df","amp;dn":"Lorde+-+Yellow+Flicker+Beat+%28from+The+Hunger+Games%29+2014","amp;tr":["udp%3A%2F%2Ftracker.openbittorrent.com%3A80","udp%3A%2F%2Fopen.demonii.com%3A1337","udp%3A%2F%2Ftracker.coppersurfer.tk%3A6969","udp%3A%2F%2Fexodus.desync.com%3A6969"],"infoHash":"fc6bb6623512407ba7021a9d6be0992ca85fb4df","infoHashBuffer":{"type":"Buffer","data":[252,107,182,98,53,18,64,123,167,2,26,157,107,224,153,44,168,95,180,223]},"announce":[],"urlList":[]}}